<svg width="22" height="22" xmlns="http://www.w3.org/2000/svg"><g fill="#504E4E" fill-rule="evenodd"><path d="M11.227 10.43c-1.595 0-2.891-1.343-2.891-2.991 0-1.65 1.296-2.99 2.89-2.99 1.595 0 2.891 1.34 2.891 2.99 0 1.648-1.296 2.99-2.89 2.99m0-7.33c-2.314 0-4.197 1.946-4.197 4.34 0 2.393 1.883 4.34 4.197 4.34 2.313 0 4.196-1.947 4.196-4.34 0-2.394-1.883-4.34-4.196-4.34"/><path d="M18.774 16.515c-1.964-2.145-4.665-3.37-7.547-3.37-2.903 0-5.617 1.239-7.584 3.409a9.697 9.697 0 0 1-1.66-5.442c0-5.253 4.133-9.528 9.212-9.528 5.08 0 9.211 4.275 9.211 9.528a9.698 9.698 0 0 1-1.632 5.403m-.983 1.234c-.077.083-.159.163-.239.242-.142.142-.287.28-.437.412-.074.063-.15.123-.225.184-.164.134-.33.267-.503.39-.07.05-.144.094-.216.143-.181.12-.364.24-.554.348-.076.043-.157.08-.235.121-.189.101-.379.2-.575.288-.096.041-.196.075-.294.114-.184.075-.367.15-.556.211-.133.043-.27.075-.404.112-.162.043-.32.093-.484.129-.194.04-.39.066-.586.095-.112.015-.223.04-.337.053a9.005 9.005 0 0 1-1.9 0c-.093-.01-.183-.03-.276-.044-.216-.03-.433-.059-.646-.104-.149-.031-.292-.078-.437-.117-.15-.04-.303-.074-.45-.122-.182-.059-.357-.132-.534-.202-.105-.042-.212-.077-.315-.123-.194-.086-.38-.184-.566-.283-.081-.042-.165-.08-.244-.125a8.693 8.693 0 0 1-.55-.347c-.073-.048-.147-.092-.218-.142a8.753 8.753 0 0 1-.503-.39c-.073-.06-.15-.116-.221-.179a10.014 10.014 0 0 1-.44-.414c-.079-.078-.158-.154-.234-.234-.05-.053-.095-.11-.145-.164 1.729-1.982 4.162-3.107 6.76-3.107 2.58 0 5 1.113 6.726 3.071-.054.06-.106.125-.162.184m3.92-6.637c0-5.997-4.717-10.877-10.516-10.877C5.397.235.68 5.115.68 11.112c0 2.434.785 4.675 2.096 6.49l-.02.024.339.422c.13.163.273.308.411.461.097.107.188.218.288.32.155.16.319.306.482.454.106.096.21.195.32.287a13.85 13.85 0 0 0 .875.656 11.2 11.2 0 0 0 1.469.826c.165.076.333.143.501.21.165.065.327.132.495.188.196.067.398.12.599.175.15.04.296.086.448.12.24.053.485.09.73.125.12.018.239.044.36.057.37.04.743.065 1.123.065s.755-.024 1.126-.065c.126-.014.248-.04.372-.059.242-.036.483-.072.719-.124.157-.035.31-.083.465-.125.196-.054.39-.106.582-.171.174-.058.343-.126.512-.194.164-.066.326-.132.485-.204a10.686 10.686 0 0 0 .945-.498c.182-.107.36-.219.536-.337.12-.081.236-.168.354-.255.176-.13.35-.26.52-.402.109-.09.21-.19.316-.285.164-.15.33-.297.486-.458.1-.103.191-.217.288-.325.144-.16.294-.313.43-.484l.336-.425-.02-.024a11.051 11.051 0 0 0 2.064-6.445"/></g></svg>