<svg width="23" height="21" xmlns="http://www.w3.org/2000/svg"><g fill="#504E4E" fill-rule="evenodd"><path d="M21.18 9.299H2.227a.388.388 0 0 1 0-.776h18.951a.388.388 0 0 1 0 .775Zm-2.611 8.763a1.703 1.703 0 0 1-1.678 1.405H6.611a1.702 1.702 0 0 1-1.677-1.405l-1.33-7.454h16.294l-1.33 7.454Zm2.61-10.848h-.795L16.824.5a.654.654 0 1 0-1.156.614l3.234 6.1H4.6l3.235-6.1A.656.656 0 0 0 6.68.5l-3.56 6.714h-.891A1.7 1.7 0 0 0 .531 8.911a1.7 1.7 0 0 0 1.697 1.697h.048l.004.028 1.365 7.656a3.011 3.011 0 0 0 2.966 2.484h10.28a3.01 3.01 0 0 0 2.967-2.484l1.365-7.656.004-.029a1.698 1.698 0 0 0-.048-3.393Z"/><path d="M11.675 18.558a.655.655 0 0 0 .655-.654V12.17a.655.655 0 1 0-1.31 0v5.733c0 .36.294.654.655.654M8.796 18.558a.656.656 0 0 0 .646-.764l-.966-5.732a.655.655 0 0 0-1.291.218l.965 5.732c.055.32.332.546.646.546M14.4 18.55a.654.654 0 0 0 .754-.537l.966-5.733a.655.655 0 0 0-1.29-.218l-.966 5.733c-.06.356.18.694.537.754"/></g></svg>