<svg width="21" height="22" xmlns="http://www.w3.org/2000/svg"><g fill="#504E4E" fill-rule="evenodd"><path d="M19.055 15.45c-.045 1.075-.217 1.655-.36 2.042A3.571 3.571 0 0 1 16.7 19.58c-.37.15-.927.33-1.95.378-1.107.051-1.44.064-4.242.064s-3.139-.013-4.242-.064c-1.026-.048-1.58-.228-1.95-.378a3.222 3.222 0 0 1-1.206-.821 3.44 3.44 0 0 1-.784-1.264c-.143-.387-.315-.971-.36-2.041-.05-1.16-.062-1.509-.062-4.444 0-2.936.012-3.288.062-4.444.045-1.074.217-1.655.36-2.041.169-.478.435-.912.788-1.264a3.25 3.25 0 0 1 1.207-.82c.369-.151.927-.332 1.949-.38 1.108-.05 1.44-.064 4.242-.064 2.807 0 3.14.013 4.243.065 1.026.047 1.58.228 1.949.378.455.176.87.456 1.206.82.35.358.616.787.784 1.265.144.386.316.97.361 2.041.05 1.16.062 1.508.062 4.444 0 2.935-.013 3.279-.062 4.44m1.892-8.983c-.05-1.169-.23-1.973-.489-2.669a5.4 5.4 0 0 0-1.214-1.951A5.152 5.152 0 0 0 17.385.58C16.716.31 15.953.12 14.837.07 13.713.013 13.356 0 10.504 0 7.652 0 7.295.013 6.175.064 5.06.116 4.292.305 3.627.576c-.706.28-1.337.709-1.863 1.272a5.447 5.447 0 0 0-1.21 1.947c-.259.7-.44 1.5-.488 2.669C.012 7.64 0 8.015 0 11.002s.012 3.361.062 4.534c.049 1.17.23 1.973.488 2.67.267.738.68 1.4 1.214 1.95a5.153 5.153 0 0 0 1.86 1.268c.668.271 1.431.46 2.547.512 1.12.051 1.477.064 4.33.064 2.85 0 3.208-.013 4.328-.064 1.116-.052 1.883-.241 2.548-.512 1.411-.571 2.528-1.74 3.073-3.219.259-.7.44-1.5.488-2.669.05-1.173.062-1.547.062-4.534s-.004-3.36-.053-4.534"/><path d="M10.5 15.068a3.568 3.568 0 1 1 .001-7.137 3.568 3.568 0 0 1-.001 7.137M10.5 6A5.501 5.501 0 0 0 5 11.5c0 3.037 2.464 5.5 5.5 5.5 3.037 0 5.5-2.463 5.5-5.5S13.537 6 10.5 6M15.5 3a1.5 1.5 0 1 0 0 3 1.5 1.5 0 0 0 0-3"/></g></svg>