<?xml version="1.0" encoding="UTF-8"?>
<svg width="20px" height="20px" viewBox="0 0 20 20" version="1.1" xmlns="http://www.w3.org/2000/svg" xmlns:xlink="http://www.w3.org/1999/xlink">
    <title>EFF8119B-6266-40D4-8DB4-7B3E53437E7D@svg</title>
    <g id="homepage" stroke="none" stroke-width="1" fill="none" fill-rule="evenodd">
        <g id="homepage-v3" transform="translate(-341.000000, -99.000000)" fill="#504E4E">
            <g id="header" transform="translate(0.000000, 31.000000)">
                <g id="search" transform="translate(181.000000, 67.000000)">
                    <path d="M168,15.4 C164.4706,15.4 161.6,12.52936 161.6,9 C161.6,5.4706 164.4706,2.6 168,2.6 C171.5294,2.6 174.4,5.4706 174.4,9 C174.4,12.52936 171.52936,15.4 168,15.4 M179.755603,19.5775 L174.068166,13.89 C175.169833,12.5291406 175.833146,10.8 175.833146,8.91667969 C175.833146,4.55167969 172.281506,1 167.916554,1 C163.551602,1 160,4.55164063 160,8.91664063 C160,13.2816406 163.551641,16.8333203 167.916593,16.8333203 C169.799892,16.8333203 171.529053,16.17 172.889858,15.0682813 L178.577296,20.7558203 C178.739794,20.9183203 178.953112,21 179.166469,21 C179.379826,21 179.593144,20.9183203 179.755642,20.7558203 C180.081459,20.43 180.081459,19.9033203 179.755603,19.5775" id="search-icon-header-desktop"></path>
                </g>
            </g>
        </g>
    </g>
</svg>