<?xml version="1.0" encoding="UTF-8"?>
<svg width="24px" height="20px" viewBox="0 0 24 20" version="1.1" xmlns="http://www.w3.org/2000/svg" xmlns:xlink="http://www.w3.org/1999/xlink">
    <title>A5162AEB-95E4-4295-9797-08E7AF0E7D64@svg</title>
    <g id="homepage" stroke="none" stroke-width="1" fill="none" fill-rule="evenodd">
        <g id="homepage-v3" transform="translate(-127.000000, -99.000000)" fill="#504E4E">
            <g id="header" transform="translate(0.000000, 31.000000)">
                <path d="M148.165,71.2063846 C149.185,70.613 149.9635,69.6805385 150.3295,68.5566154 C149.3785,69.1090769 148.3285,69.4993077 147.2095,69.7170769 C146.3065,68.7802308 145.0195,68.2 143.6155,68.2 C140.8915,68.2 138.6985,70.3543077 138.6985,72.9953077 C138.6985,73.3753077 138.7315,73.7406923 138.8125,74.0885385 C134.722,73.8941538 131.1025,71.9839231 128.671,69.074 C128.2465,69.7916154 127.9975,70.613 127.9975,71.4972308 C127.9975,73.1575385 128.875,74.6293077 130.183,75.4813846 C129.3925,75.4667692 128.617,75.2431538 127.96,74.8909231 L127.96,74.9435385 C127.96,77.2732308 129.6655,79.2083077 131.902,79.6540769 C131.5015,79.7607692 131.065,79.8119231 130.612,79.8119231 C130.297,79.8119231 129.979,79.7943846 129.6805,79.7300769 C130.318,81.6286154 132.127,83.0243846 134.278,83.0696923 C132.604,84.3456154 130.4785,85.1143846 128.1775,85.1143846 C127.774,85.1143846 127.387,85.0968462 127,85.0486154 C129.1795,86.4180769 131.7625,87.2 134.548,87.2 C143.602,87.2 148.552,79.8923077 148.552,73.558 C148.552,73.3460769 148.5445,73.1414615 148.534,72.9383077 C149.5105,72.2630769 150.331,71.4197692 151,70.4493077 C150.1075,70.8307692 149.1565,71.0836154 148.165,71.2063846 Z" id="twitter--icon-header-desktop"></path>
            </g>
        </g>
    </g>
</svg>