<svg width="24" height="20" xmlns="http://www.w3.org/2000/svg"><path d="M21.165 3.206a4.792 4.792 0 0 0 2.164-2.65 9.991 9.991 0 0 1-3.12 1.161A4.992 4.992 0 0 0 16.615.2c-2.723 0-4.917 2.154-4.917 4.795 0 .38.034.746.114 1.094A14.05 14.05 0 0 1 1.671 1.074a4.733 4.733 0 0 0-.673 2.423c0 1.66.877 3.132 2.185 3.984a4.957 4.957 0 0 1-2.223-.59v.053c0 2.33 1.706 4.264 3.942 4.71-.4.107-.837.158-1.29.158-.315 0-.633-.018-.932-.082.638 1.899 2.447 3.294 4.598 3.34a10.053 10.053 0 0 1-6.1 2.044c-.404 0-.791-.017-1.178-.065 2.18 1.37 4.762 2.151 7.548 2.151 9.054 0 14.004-7.308 14.004-13.642 0-.212-.008-.417-.018-.62A9.68 9.68 0 0 0 24 2.45a10.47 10.47 0 0 1-2.835.757Z" fill="#504E4E" fill-rule="evenodd"/></svg>