<svg width="26" height="22" xmlns="http://www.w3.org/2000/svg"><path d="M12.806 19.585C10.862 18.435 1.682 12.72 1.682 7.362c0-3.193 2.548-5.792 5.76-5.762a5.61 5.61 0 0 1 4.736 2.595l.622.967.628-.964A5.766 5.766 0 0 1 18.212 1.6c3.135.016 5.698 2.601 5.714 5.762 0 5.439-9.174 11.087-11.12 12.223M18.22.095H18.2c-2.087 0-4.037.9-5.394 2.448C11.45.978 9.466.097 7.392.095 3.42.095.19 3.355.19 7.362c0 6.847 11.753 13.47 12.253 13.75l.358.199.36-.198c.5-.275 12.257-6.806 12.257-13.756-.02-3.984-3.248-7.243-7.199-7.262" fill="#504E4E" fill-rule="evenodd"/></svg>